# xmcd
#
# Track frame offsets:
#	150
#	14379
#	27474
#	38813
#	52217
#	76535
#	89672
#	102888
#	117123
#	129759
#	141444
#	151554
#	161559
#	170877
#	180518
#	219608
#	233163
#	245648
#	259958
#	272932
#	287080
#	304628
#
# Disc length: 4347 seconds
#
# Revision: 0
# Processed by: cddbd v1.5.2PL0 Copyright (c) Steve Scherf et al.
# Submitted via: EasyCDDAExtractor 10.2.0.1
#
DISCID=3410f916
DTITLE=Vila Verde e o Seu Regional - Só sucesso
DYEAR=2007
DGENRE=Sertanejo
TTITLE0=Açucarada
TTITLE1=Barqui8nho de ouro
TTITLE2=Rei do laço
TTITLE3=Quebra topete
TTITLE4=Limpa banco
TTITLE5=Crepúsculo
TTITLE6=Casa da vovó
TTITLE7=Praia da solidão
TTITLE8=Boi tufão
TTITLE9=Mulher sempre mulher
TTITLE10=O relógio da matriz
TTITLE11=A gaivota
TTITLE12=Quadrilha soleada
TTITLE13=Soca pilão
TTITLE14=Asa branca
TTITLE15=Embalo de galpão
TTITLE16=Não me desdobra
TTITLE17=Quadrilha
TTITLE18=Porre de pinga
TTITLE19=Desaventurada
TTITLE20=Saudade da minha terra
TTITLE21=Barbaridade
EXTD=
EXTT0=
EXTT1=
EXTT2=
EXTT3=
EXTT4=
EXTT5=
EXTT6=
EXTT7=
EXTT8=
EXTT9=
EXTT10=
EXTT11=
EXTT12=
EXTT13=
EXTT14=
EXTT15=
EXTT16=
EXTT17=
EXTT18=
EXTT19=
EXTT20=
EXTT21=
PLAYORDER=
